<?xml version="1.0" encoding="utf-8"?>
<!-- Generator: Adobe Illustrator 16.0.0, SVG Export Plug-In . SVG Version: 6.00 Build 0)  -->
<!DOCTYPE svg PUBLIC "-//W3C//DTD SVG 1.1//EN" "http://www.w3.org/Graphics/SVG/1.1/DTD/svg11.dtd">
<svg version="1.1" id="Layer_1" xmlns="http://www.w3.org/2000/svg" xmlns:xlink="http://www.w3.org/1999/xlink" x="0px" y="0px"
	 width="100px" height="100px" viewBox="0 0 100 100" enable-background="new 0 0 100 100" xml:space="preserve">
<path fill="#939393" d="M44.5,79.1c0,2.601-3.17,4.7-7.095,4.7h-24.91C8.57,83.8,5.4,81.7,5.4,79.1c0-2.6,3.17-4.699,7.096-4.699
	h24.91C41.33,74.5,44.5,76.6,44.5,79.1z"/>
<path fill="#939393" d="M94,65.7c-1.8-1.8-4.8-1.8-6.6,0L81.1,72V16.8c0-2.6-2.1-4.7-4.699-4.7c-2.601,0-4.7,2.1-4.7,4.7V71.9
	L65.4,65.6c-1.801-1.8-4.801-1.8-6.601,0C57,67.4,57,70.4,58.8,72.2L73,86.4l0,0c0.2,0.199,0.5,0.3,0.7,0.5
	c0.3,0.199,0.5,0.399,0.8,0.5c0.6,0.199,1.2,0.399,1.8,0.399l0,0l0,0c0.601,0,1.2-0.1,1.8-0.399C78.4,87.3,78.6,87.1,78.9,86.9
	c0.199-0.2,0.5-0.301,0.699-0.5l0,0L94,72.3C95.8,70.5,95.8,67.5,94,65.7z"/>
<path fill="#939393" d="M49.505,43.3h-38.91C7.721,43.3,5.4,45.4,5.4,48c0,2.6,2.321,4.7,5.195,4.7h38.91
	c2.874,0,5.195-2.101,5.195-4.7C54.7,45.4,52.379,43.3,49.505,43.3z"/>
<path fill="#939393" d="M10.1,21.5h47.7c2.601,0,4.7-2.1,4.7-4.7c0-2.6-2.1-4.7-4.7-4.7H10.1c-2.6,0-4.7,2.1-4.7,4.7
	C5.4,19.4,7.5,21.5,10.1,21.5z"/>
</svg>
